<?xml version="1.0" encoding="UTF-8"?>
<svg id="Layer_2" data-name="Layer 2" xmlns="http://www.w3.org/2000/svg" viewBox="0 0 882.29 497.6">
  <defs>
    <style>
      .cls-1 {
        fill: #900;
        stroke-width: 0px;
      }
    </style>
  </defs>
  <g id="_2_Layer" data-name="2 – Layer">
    <path class="cls-1" d="M577.03,421.63s-11.69-13.15-31.31-38.23c-37.6-47.68-78.6-92.71-122.06-135.09-61.09-58.88-127.88-113.01-200.66-156.83C154.24,49.73,78.85,16.46,0,0h0c124.83,50.88,235.2,130.53,333.45,221.85,77.26,72.47,148.82,151.64,211.58,237,6.75,9.24,13.42,18.49,19.4,28.19,11.29,17.91,38.91,11.88,41.69-9.25,7.31-29.7,18.7-58.54,30.06-87.01,20.23-49.89,43.68-98.59,70.81-145.11,43.83-73.46,97.02-146.7,175.31-185.96-54.04,14.82-100.26,50.66-138.9,90.38-69.49,73.15-120.31,162.29-159.23,254.88l-7.13,16.65Z"/>
  </g>
</svg>