<?xml version="1.0" encoding="UTF-8"?>
<svg id="Layer_2" data-name="Layer 2" xmlns="http://www.w3.org/2000/svg" viewBox="0 0 761.61 428.84">
  <defs>
    <style>
      .cls-1 {
        fill: #900;
        stroke-width: 0px;
      }
    </style>
  </defs>
  <g id="_2_Layer" data-name="2 – Layer">
    <path class="cls-1" d="M760.28,344.58c-5.02-25.45-22.88-44.67-44.31-57.94,36.42-34.29,43.27-100.21-2.77-130.07-57.23-37.48-130.23-37.58-195.53-27.66-130.89,22.13-251.43,80.97-365.2,145.47-18.7,10.6-38.93,22.74-57.89,34.5C137.82,212.44,150.65,104.71,156.7,0c-20.12,82.32-39.41,165.63-73.36,243.37-13.06,30.21-28.35,59.63-46.99,86.49-9.19,13.24-19.25,25.64-30.02,36.97-6.82,7.19-8.46,18.29-3.27,27.32,6.33,11.01,20.39,14.8,31.4,8.46,23.08-13.41,49.19-28.35,72.49-41.46,131.9-73.5,345.86-185.38,496.36-182.11,28.23.92,57.28,6.1,81.54,20.07l.64.36.31.17s.17.12.17.12c1.33.85,2.71,1.67,3.84,2.75,14.13,13.51,6.12,40.03-5.9,52.72-5.69,6.21-13.08,10.39-21.46,11.01l-2.92.31c-8.92.96-16.52,7.68-18.18,16.96-2.02,11.27,5.48,22.04,16.75,24.06,12.43,2.21,24.8,5.45,36.15,10.63,20.04,9,38.54,26.04,36.04,48.68-1.2,10.64-7.54,20.74-15.95,27.51-14.79,12.01-34.72,16.11-53.69,15.67-35.39-1.13-68.62-15.57-99.11-32.95,43.18,38,111.93,71.52,167.45,37.93,23.61-14.74,37.05-42.72,31.3-70.44Z"/>
  </g>
</svg>